<?xml version="1.0" encoding="utf-8"?>
<svg x="0px" y="0px" viewBox="0 0 500 500" xml:space="preserve">
  <path d="M31.25,402.19h437.5c17.26,0,31.25,14.6,31.25,32.6V467.4c0,18-14,32.6-31.25,32.6H31.25C14,500,0,485.4,0,467.4V434.79C0,416.79,14,402.19,31.25,402.19Z"/>
  <path d="M31.25,239.17h437.5c17.26,0,31.25,14.6,31.25,32.61v32.6c0,18-14,32.6-31.25,32.6H31.25C14,337,0,322.39,0,304.38v-32.6C0,253.77,14,239.17,31.25,239.17Z"/>
  <path d="M499.53,58.39l-5.39-31.71C491,9,474.82-2.65,457.89.52L25.94,78.36C9.12,81.43-2.22,98,.47,115.61l5.39,31.7C9,165,25.18,176.65,42.11,173.48l432-77.84C490.88,92.57,502.22,76,499.53,58.39Z"/>
</svg>
