<svg viewBox="0 0 46.703 44.758">
<path fill="#BAC033" d="M43.784,36.001H2.919C1.307,36.001,0,37.308,0,38.92v2.919c0,1.612,1.307,2.919,2.919,2.919h40.865
	c1.612,0,2.919-1.307,2.919-2.919V38.92C46.703,37.308,45.396,36.001,43.784,36.001"/>
<path fill="#FFFFFF" d="M43.784,21.406H2.919C1.307,21.406,0,22.713,0,24.325v2.919c0,1.611,1.307,2.919,2.919,2.919h40.865
	c1.612,0,2.919-1.308,2.919-2.919v-2.919C46.703,22.713,45.396,21.406,43.784,21.406"/>
<path fill="#FFFFFF" d="M46.659,5.225l-0.505-2.839c-0.279-1.568-1.795-2.616-3.387-2.342L2.422,7.008
	C0.83,7.283-0.235,8.776,0.045,10.344l0.505,2.839c0.278,1.568,1.795,2.616,3.386,2.342l40.346-6.964
	C45.874,8.287,46.938,6.792,46.659,5.225"/>
</svg>
