<svg viewBox="0 0 419.566 44.758">
<path class="grey" d="M43.784,36.001H2.919C1.307,36.001,0,37.308,0,38.92v2.919c0,1.612,1.307,2.919,2.919,2.919h40.865
	c1.612,0,2.919-1.307,2.919-2.919V38.92C46.703,37.308,45.396,36.001,43.784,36.001"/>
<path class="green" d="M43.784,21.406H2.919C1.307,21.406,0,22.713,0,24.325v2.919c0,1.611,1.307,2.919,2.919,2.919h40.865
	c1.612,0,2.919-1.308,2.919-2.919v-2.919C46.703,22.713,45.396,21.406,43.784,21.406"/>
<path class="green" d="M46.659,5.225l-0.505-2.839c-0.279-1.568-1.795-2.616-3.387-2.342L2.422,7.008
	C0.83,7.283-0.235,8.776,0.045,10.344l0.505,2.839c0.278,1.568,1.795,2.616,3.386,2.342l40.346-6.964
	C45.874,8.287,46.937,6.792,46.659,5.225"/>
<path class="grey" d="M352.821,38.346c-3.125-3.086-4.911-7.053-4.911-14.933v-0.109c0-11.738,6.027-20.939,16.241-20.939
	c4.341,0,7.629,1.417,10.794,3.814c0.426,0.322,0.499,0.936,0.175,1.36l-1.378,1.804c-0.332,0.434-0.951,0.5-1.383,0.165
	c-2.622-2.034-5.179-3.175-8.431-3.175c-7.088,0-11.497,7.053-11.441,17.026c2.12-3.086,5.413-5.896,11.106-5.896
	c7.256,0,13.507,4.628,13.507,11.847v0.11c0,7.438-6.083,12.838-14.009,12.838C358.793,42.257,355.277,40.77,352.821,38.346
	 M372.579,29.584v-0.109c0-4.739-3.906-8.266-9.544-8.266c-5.859,0-9.767,4.132-9.767,8.431v0.109c0,4.904,4.13,8.651,9.878,8.651
	C368.895,38.4,372.579,34.488,372.579,29.584"/>
<path class="grey" d="M386.485,22.422v-0.11c0-10.801,6.55-19.948,16.625-19.948s16.456,9.037,16.456,19.837v0.111
	c0,10.798-6.492,19.945-16.568,19.945C392.868,42.257,386.485,33.221,386.485,22.422 M414.976,22.422v-0.11
	c0-8.432-4.701-15.98-11.979-15.98c-7.332,0-11.922,7.383-11.922,15.869v0.111c0,8.429,4.702,15.979,12.034,15.979
	C410.443,38.291,414.976,30.852,414.976,22.422"/>
<path class="grey" d="M308.888,35.337l1.586-1.623c0.384-0.392,1.019-0.395,1.393,0.008c2.386,2.567,6.13,4.287,10.42,4.287
	c5.774,0,9.287-2.813,9.287-7.177c0-4.767-4.047-6.774-9.882-6.774c-1.101,0-2.277,0-3.121,0.017
	c-0.545,0.011-0.987-0.429-0.987-0.973v-2.336c0-0.545,0.443-0.984,0.987-0.973c0.86,0.017,2.045,0.017,3.121,0.017
	c5.001,0,9.227-1.895,9.227-6.315c0-4.249-4.048-6.545-8.87-6.545c-3.992,0-7.029,1.356-9.759,3.937
	c-0.401,0.379-1.029,0.375-1.402-0.032l-1.452-1.584c-0.342-0.372-0.356-0.953-0.01-1.32c2.882-3.049,7.261-5.25,13.04-5.25
	c7.62,0,13.396,3.733,13.396,10.162c0,5.569-4.824,8.325-8.515,8.899c3.572,0.345,9.168,3.273,9.168,9.472
	c0,6.374-5.357,11.024-14.107,11.024c-6.254,0-10.964-2.481-13.558-5.598C308.525,36.269,308.534,35.7,308.888,35.337"/>
<path class="grey" d="M93.312,38.659c3.957,0,6.742-1.615,9.084-4.067l2.675,2.396c-2.899,3.231-6.409,5.405-11.869,5.405
	c-7.914,0-14.378-6.074-14.378-15.046c0-8.358,5.851-15.045,13.819-15.045c8.526,0,13.43,6.798,13.43,15.268
	c0,0.39,0,0.836-0.056,1.505H83.169C83.783,35.148,88.241,38.659,93.312,38.659 M101.726,25.62
	c-0.502-5.238-3.511-9.696-9.194-9.696c-4.96,0-8.749,4.124-9.363,9.696H101.726z"/>
<rect x="118.225" y="2.615" class="grey" width="4.291" height="39.109"/>
<path class="grey" d="M149.433,38.659c3.956,0,6.743-1.615,9.084-4.067l2.675,2.396c-2.899,3.231-6.409,5.405-11.87,5.405
	c-7.913,0-14.377-6.074-14.377-15.046c0-8.358,5.851-15.045,13.819-15.045c8.526,0,13.431,6.798,13.431,15.268
	c0,0.39,0,0.836-0.058,1.505h-22.846C139.904,35.148,144.362,38.659,149.433,38.659 M157.847,25.62
	c-0.502-5.238-3.511-9.696-9.194-9.696c-4.961,0-8.749,4.124-9.363,9.696H157.847z"/>
<polygon class="grey" points="169.722,12.915 174.458,12.915 184.153,36.821 193.906,12.915 198.531,12.915 185.994,41.947 
	182.204,41.947 "/>
<path class="grey" d="M205.948,33.365v-0.11c0-6.187,5.015-9.418,12.315-9.418c3.678,0,6.24,0.502,8.804,1.226v-0.892
	c0-5.126-3.121-7.801-8.526-7.801c-3.397,0-6.073,0.836-8.748,2.062l-1.282-3.511c3.176-1.448,6.242-2.452,10.477-2.452
	c4.068,0,7.242,1.115,9.305,3.177c2.007,2.006,3.011,4.793,3.011,8.47v17.609h-4.236v-4.291c-2.007,2.563-5.294,4.904-10.364,4.904
	C211.297,42.338,205.948,39.272,205.948,33.365 M227.123,31.137v-2.675c-2.117-0.612-4.903-1.226-8.414-1.226
	c-5.35,0-8.415,2.34-8.415,5.795v0.111c0,3.623,3.346,5.74,7.244,5.74C222.832,38.883,227.123,35.706,227.123,31.137"/>
<path class="grey" d="M245.851,34.091V16.704h-4.012v-3.789h4.012v-10.3h4.291v10.3h9.141v3.789h-9.141v16.83
	c0,3.511,1.95,4.792,4.849,4.792c1.449,0,2.675-0.279,4.179-1.003V41c-1.504,0.78-3.121,1.226-5.181,1.226
	C249.362,42.226,245.851,39.941,245.851,34.091"/>
<path class="grey" d="M282.968,38.659c3.956,0,6.741-1.615,9.082-4.067l2.675,2.396c-2.897,3.231-6.406,5.405-11.868,5.405
	c-7.913,0-14.377-6.074-14.377-15.046c0-8.358,5.851-15.045,13.819-15.045c8.524,0,13.43,6.798,13.43,15.268
	c0,0.39,0,0.836-0.057,1.505h-22.846C273.44,35.148,277.897,38.659,282.968,38.659 M291.381,25.62
	c-0.501-5.238-3.511-9.696-9.193-9.696c-4.959,0-8.748,4.124-9.361,9.696H291.381z"/>
</svg>
