<svg id="logos" xmlns="http://www.w3.org/2000/svg" viewBox="0 0 374 110"><defs><style>.cls-1{fill:#6c6f70;}.cls-2{fill:#a8b400;}</style></defs><title>wholeview-logo</title><path class="cls-1" d="M99.09,55.76h3.76l6.23,19,6.37-19.11h2.93l6.42,19.11,6.23-19h3.67l-8.34,23.87h-3.07l-6.37-18.69L110.5,79.63h-3.11Z"/><path class="cls-1" d="M142.85,46h3.53V59.88a9,9,0,0,1,8.11-4.62c5.73,0,9.07,3.85,9.07,9.48V79.45H160V65.61c0-4.4-2.38-7.15-6.55-7.15s-7.1,3-7.1,7.43V79.45h-3.53Z"/><path class="cls-1" d="M171.9,67.72v-.09a12.35,12.35,0,0,1,24.7-.09v.09A12.3,12.3,0,0,1,184.18,80,12.14,12.14,0,0,1,171.9,67.72Zm21.08,0v-.09a9,9,0,0,0-8.8-9.26c-5.13,0-8.66,4.17-8.66,9.17v.09a8.89,8.89,0,0,0,8.75,9.21C189.4,76.84,193,72.71,193,67.72Z"/><path class="cls-1" d="M205.57,46h3.53V79.45h-3.53Z"/><path class="cls-1" d="M230,76.93a9.81,9.81,0,0,0,7.47-3.35l2.2,2A12.24,12.24,0,0,1,230,80c-6.51,0-11.82-5-11.82-12.37,0-6.88,4.81-12.37,11.36-12.37,7,0,11,5.59,11,12.55,0,.32,0,.69,0,1.24H221.7A8.28,8.28,0,0,0,230,76.93ZM237,66.21c-.41-4.31-2.89-8-7.56-8-4.08,0-7.2,3.4-7.7,8Z"/><path class="cls-1" d="M245.53,55.76h3.89l8,19.66,8-19.66h3.81L258.91,79.63h-3.12Z"/><path class="cls-1" d="M277.14,46.69h4v3.89h-4Zm.23,9.07h3.53V79.45h-3.53Z"/><path class="cls-1" d="M301.84,76.93a9.81,9.81,0,0,0,7.47-3.35l2.2,2A12.26,12.26,0,0,1,301.75,80c-6.51,0-11.83-5-11.83-12.37,0-6.88,4.81-12.37,11.37-12.37,7,0,11,5.59,11,12.55a12.38,12.38,0,0,1-.05,1.24H293.5A8.28,8.28,0,0,0,301.84,76.93Zm6.92-10.72c-.42-4.31-2.89-8-7.56-8-4.08,0-7.2,3.4-7.7,8Z"/><path class="cls-1" d="M317.64,55.76h3.76l6.23,19L334,55.67h2.93l6.42,19.11,6.23-19h3.67l-8.34,23.87h-3.07l-6.37-18.69-6.42,18.69h-3.11Z"/><rect class="cls-2" x="58" y="20" width="10" height="50" rx="3"/><rect class="cls-2" x="39" y="40" width="10" height="50" rx="3"/><rect class="cls-1" x="20" y="40" width="10" height="50" rx="3"/></svg>
