<svg xmlns="http://www.w3.org/2000/svg" width="18" height="18" viewBox="0 0 18 18">
    <g fill="#FBFBFB" fill-rule="evenodd">
        <path d="M16.615 13.5a3.12 3.12 0 0 1-3.115 3.115h-9A3.12 3.12 0 0 1 1.385 13.5v-9A3.12 3.12 0 0 1 4.5 1.385h9A3.12 3.12 0 0 1 16.615 4.5v9zM13.5 0h-9A4.505 4.505 0 0 0 0 4.5v9C0 15.981 2.019 18 4.5 18h9c2.481 0 4.5-2.019 4.5-4.5v-9C18 2.019 15.981 0 13.5 0z"/>
        <path d="M8.985 12.477A3.48 3.48 0 0 1 5.509 9a3.48 3.48 0 0 1 3.476-3.477A3.48 3.48 0 0 1 12.462 9a3.48 3.48 0 0 1-3.477 3.477m0-8.338c-2.68 0-4.86 2.18-4.86 4.861 0 2.68 2.18 4.861 4.86 4.861s4.861-2.18 4.861-4.861c0-2.68-2.18-4.861-4.861-4.861M13.846 2.077a.693.693 0 0 0 0 1.385.693.693 0 0 0 0-1.385"/>
    </g>
</svg>
