<svg xmlns="http://www.w3.org/2000/svg" width="17" height="14" viewBox="0 0 17 14">
    <path fill="#FBFBFB" fill-rule="evenodd" d="M16.928 1.651a.285.285 0 0 0-.339-.064c-.133.067-.427.162-.75.244.327-.376.6-.83.709-1.231a.284.284 0 0 0-.433-.309c-.218.149-1.243.585-1.879.71C13.446.31 12.664 0 11.716 0 11.012 0 10.36.193 9.6.626c-1.354.772-1.56 2.47-1.442 3.466C4.414 3.78 2.316 1.693 1.574.789a.283.283 0 0 0-.461.032A3.349 3.349 0 0 0 .72 3.459c.149.572.426 1.075.74 1.468a4.11 4.11 0 0 1-.642-.421.284.284 0 0 0-.46.222c0 1.649 1.112 2.774 2.07 3.33a5.744 5.744 0 0 1-.633-.157.283.283 0 0 0-.339.39c.587 1.267 1.774 2.199 3.087 2.479-1.134.708-2.744 1.062-4.227.894a.283.283 0 1 0-.168.53A11.127 11.127 0 0 0 5.63 13.6h.012c2.765-.002 5.337-1.184 7.244-3.327 1.728-1.943 2.628-4.406 2.429-6.623.467-.33 1.194-.969 1.64-1.655a.283.283 0 0 0-.027-.344"/>
</svg>
