<svg viewBox="0 0 18 18">
    <path fill-rule="evenodd" d="M16.615 0H1.385C.62 0 0 .621 0 1.385v15.23C0 17.38.621 18 1.385 18h7.269A.346.346 0 0 0 9 17.654v-4.846a.346.346 0 0 0-.346-.346H7.269a.346.346 0 0 1-.346-.347V9.346c0-.19.155-.346.346-.346h1.385A.346.346 0 0 0 9 8.654V7.269c0-2.1 1.708-3.807 3.808-3.807h2.077c.19 0 .346.155.346.346v2.769a.346.346 0 0 1-.346.346H13.5a1.04 1.04 0 0 0-1.038 1.039v.692c0 .19.155.346.346.346h2.077a.347.347 0 0 1 .343.39l-.346 2.768a.347.347 0 0 1-.344.304h-1.73a.346.346 0 0 0-.346.346v4.846c0 .19.155.346.346.346h3.807C17.38 18 18 17.379 18 16.615V1.385C18 .62 17.379 0 16.615 0"/>
</svg>
