<?xml version="1.0" standalone="no"?>
<!DOCTYPE svg PUBLIC "-//W3C//DTD SVG 20010904//EN"
 "http://www.w3.org/TR/2001/REC-SVG-20010904/DTD/svg10.dtd">
<svg version="1.0" xmlns="http://www.w3.org/2000/svg"
 width="700.000000pt" height="700.000000pt" viewBox="0 0 700.000000 700.000000"
 preserveAspectRatio="xMidYMid meet">
<metadata>
Created by potrace 1.11, written by Peter Selinger 2001-2013
</metadata>
<g transform="translate(0.000000,700.000000) scale(0.100000,-0.100000)"
fill="#000000" stroke="none">
<path d="M4386 5407 c-49 -12 -100 -64 -112 -113 -6 -23 -9 -535 -9 -1264 1
-1102 3 -1228 17 -1255 21 -39 56 -71 91 -84 37 -14 297 -14 334 0 40 15 81
57 94 96 8 25 11 380 11 1269 l0 1234 -26 44 c-39 67 -75 79 -232 80 -71 1
-147 -3 -168 -7z"/>
<path d="M2285 4305 c-41 -22 -64 -45 -82 -79 -13 -26 -15 -185 -15 -1277 l0
-1248 23 -33 c50 -71 75 -80 229 -82 186 -3 239 14 276 91 17 36 18 100 18
1272 1 1383 6 1288 -71 1341 -34 24 -45 25 -192 28 -128 2 -161 0 -186 -13z"/>
<path d="M3330 4309 c-33 -13 -68 -47 -88 -84 -14 -27 -16 -159 -16 -1250 -1
-671 2 -1237 7 -1258 10 -51 42 -92 86 -113 28 -13 66 -18 166 -19 72 0 146 3
166 8 44 11 80 41 104 87 18 33 18 95 18 1275 0 1110 -1 1243 -15 1270 -21 38
-55 71 -91 84 -35 14 -303 13 -337 0z"/>
</g>
</svg>
